<mxfile host="app.diagrams.net" modified="2024-01-06T22:36:02.098Z" agent="Mozilla/5.0 (Windows NT 10.0; Win64; x64) AppleWebKit/537.36 (KHTML, like Gecko) Chrome/120.0.0.0 Safari/537.36" etag="Fsbwsnms_F81GXfwf9rD" version="22.1.16" type="device">
  <diagram name="Page-1" id="w2aKbGM4OgQQWF_sVL2D">
    <mxGraphModel dx="1050" dy="1657" grid="1" gridSize="10" guides="1" tooltips="1" connect="1" arrows="1" fold="1" page="1" pageScale="1" pageWidth="850" pageHeight="1100" math="0" shadow="0">
      <root>
        <mxCell id="0" />
        <mxCell id="1" parent="0" />
        <mxCell id="8XGC9akkUfp5Vn1tWTnV-1" value="VPC" style="points=[[0,0],[0.25,0],[0.5,0],[0.75,0],[1,0],[1,0.25],[1,0.5],[1,0.75],[1,1],[0.75,1],[0.5,1],[0.25,1],[0,1],[0,0.75],[0,0.5],[0,0.25]];outlineConnect=0;gradientColor=none;html=1;whiteSpace=wrap;fontSize=12;fontStyle=0;container=1;pointerEvents=0;collapsible=0;recursiveResize=0;shape=mxgraph.aws4.group;grIcon=mxgraph.aws4.group_vpc2;strokeColor=#8C4FFF;fillColor=none;verticalAlign=top;align=left;spacingLeft=30;fontColor=#AAB7B8;dashed=0;" vertex="1" parent="1">
          <mxGeometry x="40" y="-400" width="640" height="560" as="geometry" />
        </mxCell>
        <mxCell id="8XGC9akkUfp5Vn1tWTnV-46" style="edgeStyle=orthogonalEdgeStyle;rounded=0;orthogonalLoop=1;jettySize=auto;html=1;" edge="1" parent="8XGC9akkUfp5Vn1tWTnV-1" source="8XGC9akkUfp5Vn1tWTnV-2" target="8XGC9akkUfp5Vn1tWTnV-25">
          <mxGeometry relative="1" as="geometry">
            <Array as="points">
              <mxPoint x="100" y="540" />
              <mxPoint x="480" y="540" />
              <mxPoint x="480" y="470" />
            </Array>
          </mxGeometry>
        </mxCell>
        <mxCell id="8XGC9akkUfp5Vn1tWTnV-2" value="Private subnet" style="points=[[0,0],[0.25,0],[0.5,0],[0.75,0],[1,0],[1,0.25],[1,0.5],[1,0.75],[1,1],[0.75,1],[0.5,1],[0.25,1],[0,1],[0,0.75],[0,0.5],[0,0.25]];outlineConnect=0;gradientColor=none;html=1;whiteSpace=wrap;fontSize=12;fontStyle=0;container=1;pointerEvents=0;collapsible=0;recursiveResize=0;shape=mxgraph.aws4.group;grIcon=mxgraph.aws4.group_security_group;grStroke=0;strokeColor=#00A4A6;fillColor=#E6F6F7;verticalAlign=top;align=left;spacingLeft=30;fontColor=#147EBA;dashed=0;" vertex="1" parent="8XGC9akkUfp5Vn1tWTnV-1">
          <mxGeometry x="40" y="410" width="120" height="100" as="geometry" />
        </mxCell>
        <mxCell id="8XGC9akkUfp5Vn1tWTnV-8" value="" style="sketch=0;outlineConnect=0;fontColor=#232F3E;gradientColor=none;fillColor=#C925D1;strokeColor=none;dashed=0;verticalLabelPosition=bottom;verticalAlign=top;align=center;html=1;fontSize=12;fontStyle=0;aspect=fixed;pointerEvents=1;shape=mxgraph.aws4.rds_instance;" vertex="1" parent="8XGC9akkUfp5Vn1tWTnV-2">
          <mxGeometry x="50" y="30" width="50" height="50" as="geometry" />
        </mxCell>
        <mxCell id="8XGC9akkUfp5Vn1tWTnV-39" style="edgeStyle=orthogonalEdgeStyle;rounded=0;orthogonalLoop=1;jettySize=auto;html=1;entryX=0.524;entryY=0.073;entryDx=0;entryDy=0;entryPerimeter=0;" edge="1" parent="8XGC9akkUfp5Vn1tWTnV-1" source="8XGC9akkUfp5Vn1tWTnV-3" target="8XGC9akkUfp5Vn1tWTnV-25">
          <mxGeometry relative="1" as="geometry">
            <Array as="points">
              <mxPoint x="340" y="540" />
              <mxPoint x="480" y="540" />
              <mxPoint x="480" y="470" />
              <mxPoint x="557" y="470" />
            </Array>
          </mxGeometry>
        </mxCell>
        <mxCell id="8XGC9akkUfp5Vn1tWTnV-3" value="Private subnet" style="points=[[0,0],[0.25,0],[0.5,0],[0.75,0],[1,0],[1,0.25],[1,0.5],[1,0.75],[1,1],[0.75,1],[0.5,1],[0.25,1],[0,1],[0,0.75],[0,0.5],[0,0.25]];outlineConnect=0;gradientColor=none;html=1;whiteSpace=wrap;fontSize=12;fontStyle=0;container=1;pointerEvents=0;collapsible=0;recursiveResize=0;shape=mxgraph.aws4.group;grIcon=mxgraph.aws4.group_security_group;grStroke=0;strokeColor=#00A4A6;fillColor=#E6F6F7;verticalAlign=top;align=left;spacingLeft=30;fontColor=#147EBA;dashed=0;" vertex="1" parent="8XGC9akkUfp5Vn1tWTnV-1">
          <mxGeometry x="280" y="410" width="120" height="100" as="geometry" />
        </mxCell>
        <mxCell id="8XGC9akkUfp5Vn1tWTnV-9" value="" style="sketch=0;outlineConnect=0;fontColor=#232F3E;gradientColor=none;fillColor=#C925D1;strokeColor=none;dashed=0;verticalLabelPosition=bottom;verticalAlign=top;align=center;html=1;fontSize=12;fontStyle=0;aspect=fixed;pointerEvents=1;shape=mxgraph.aws4.rds_instance;" vertex="1" parent="8XGC9akkUfp5Vn1tWTnV-3">
          <mxGeometry x="50" y="30" width="50" height="50" as="geometry" />
        </mxCell>
        <mxCell id="8XGC9akkUfp5Vn1tWTnV-4" value="Private subnet" style="points=[[0,0],[0.25,0],[0.5,0],[0.75,0],[1,0],[1,0.25],[1,0.5],[1,0.75],[1,1],[0.75,1],[0.5,1],[0.25,1],[0,1],[0,0.75],[0,0.5],[0,0.25]];outlineConnect=0;gradientColor=none;html=1;whiteSpace=wrap;fontSize=12;fontStyle=0;container=1;pointerEvents=0;collapsible=0;recursiveResize=0;shape=mxgraph.aws4.group;grIcon=mxgraph.aws4.group_security_group;grStroke=0;strokeColor=#00A4A6;fillColor=#E6F6F7;verticalAlign=top;align=left;spacingLeft=30;fontColor=#147EBA;dashed=0;" vertex="1" parent="8XGC9akkUfp5Vn1tWTnV-1">
          <mxGeometry x="40" y="260" width="120" height="100" as="geometry" />
        </mxCell>
        <mxCell id="8XGC9akkUfp5Vn1tWTnV-10" value="" style="sketch=0;outlineConnect=0;fontColor=#232F3E;gradientColor=none;strokeColor=#232F3E;fillColor=#ffffff;dashed=0;verticalLabelPosition=bottom;verticalAlign=top;align=center;html=1;fontSize=12;fontStyle=0;aspect=fixed;shape=mxgraph.aws4.resourceIcon;resIcon=mxgraph.aws4.instance;" vertex="1" parent="8XGC9akkUfp5Vn1tWTnV-4">
          <mxGeometry x="35" y="40" width="50" height="50" as="geometry" />
        </mxCell>
        <mxCell id="8XGC9akkUfp5Vn1tWTnV-34" style="edgeStyle=orthogonalEdgeStyle;rounded=0;orthogonalLoop=1;jettySize=auto;html=1;" edge="1" parent="8XGC9akkUfp5Vn1tWTnV-1" source="8XGC9akkUfp5Vn1tWTnV-5" target="8XGC9akkUfp5Vn1tWTnV-24">
          <mxGeometry relative="1" as="geometry">
            <Array as="points">
              <mxPoint x="340" y="230" />
              <mxPoint x="550" y="230" />
            </Array>
          </mxGeometry>
        </mxCell>
        <mxCell id="8XGC9akkUfp5Vn1tWTnV-5" value="Private subnet" style="points=[[0,0],[0.25,0],[0.5,0],[0.75,0],[1,0],[1,0.25],[1,0.5],[1,0.75],[1,1],[0.75,1],[0.5,1],[0.25,1],[0,1],[0,0.75],[0,0.5],[0,0.25]];outlineConnect=0;gradientColor=none;html=1;whiteSpace=wrap;fontSize=12;fontStyle=0;container=1;pointerEvents=0;collapsible=0;recursiveResize=0;shape=mxgraph.aws4.group;grIcon=mxgraph.aws4.group_security_group;grStroke=0;strokeColor=#00A4A6;fillColor=#E6F6F7;verticalAlign=top;align=left;spacingLeft=30;fontColor=#147EBA;dashed=0;" vertex="1" parent="8XGC9akkUfp5Vn1tWTnV-1">
          <mxGeometry x="280" y="260" width="120" height="100" as="geometry" />
        </mxCell>
        <mxCell id="8XGC9akkUfp5Vn1tWTnV-11" value="" style="sketch=0;outlineConnect=0;fontColor=#232F3E;gradientColor=none;strokeColor=#232F3E;fillColor=#ffffff;dashed=0;verticalLabelPosition=bottom;verticalAlign=top;align=center;html=1;fontSize=12;fontStyle=0;aspect=fixed;shape=mxgraph.aws4.resourceIcon;resIcon=mxgraph.aws4.instance;" vertex="1" parent="8XGC9akkUfp5Vn1tWTnV-5">
          <mxGeometry x="40" y="40" width="50" height="50" as="geometry" />
        </mxCell>
        <mxCell id="8XGC9akkUfp5Vn1tWTnV-29" style="edgeStyle=orthogonalEdgeStyle;rounded=0;orthogonalLoop=1;jettySize=auto;html=1;" edge="1" parent="8XGC9akkUfp5Vn1tWTnV-1" source="8XGC9akkUfp5Vn1tWTnV-6" target="8XGC9akkUfp5Vn1tWTnV-23">
          <mxGeometry relative="1" as="geometry">
            <Array as="points">
              <mxPoint x="100" y="40" />
              <mxPoint x="555" y="40" />
            </Array>
          </mxGeometry>
        </mxCell>
        <mxCell id="8XGC9akkUfp5Vn1tWTnV-6" value="Public subnet" style="points=[[0,0],[0.25,0],[0.5,0],[0.75,0],[1,0],[1,0.25],[1,0.5],[1,0.75],[1,1],[0.75,1],[0.5,1],[0.25,1],[0,1],[0,0.75],[0,0.5],[0,0.25]];outlineConnect=0;gradientColor=none;html=1;whiteSpace=wrap;fontSize=12;fontStyle=0;container=1;pointerEvents=0;collapsible=0;recursiveResize=0;shape=mxgraph.aws4.group;grIcon=mxgraph.aws4.group_security_group;grStroke=0;strokeColor=#7AA116;fillColor=#F2F6E8;verticalAlign=top;align=left;spacingLeft=30;fontColor=#248814;dashed=0;" vertex="1" parent="8XGC9akkUfp5Vn1tWTnV-1">
          <mxGeometry x="40" y="100" width="120" height="100" as="geometry" />
        </mxCell>
        <mxCell id="8XGC9akkUfp5Vn1tWTnV-30" style="edgeStyle=orthogonalEdgeStyle;rounded=0;orthogonalLoop=1;jettySize=auto;html=1;" edge="1" parent="8XGC9akkUfp5Vn1tWTnV-1" source="8XGC9akkUfp5Vn1tWTnV-7" target="8XGC9akkUfp5Vn1tWTnV-23">
          <mxGeometry relative="1" as="geometry">
            <Array as="points">
              <mxPoint x="343" y="40" />
              <mxPoint x="555" y="40" />
            </Array>
          </mxGeometry>
        </mxCell>
        <mxCell id="8XGC9akkUfp5Vn1tWTnV-7" value="Public subnet" style="points=[[0,0],[0.25,0],[0.5,0],[0.75,0],[1,0],[1,0.25],[1,0.5],[1,0.75],[1,1],[0.75,1],[0.5,1],[0.25,1],[0,1],[0,0.75],[0,0.5],[0,0.25]];outlineConnect=0;gradientColor=none;html=1;whiteSpace=wrap;fontSize=12;fontStyle=0;container=1;pointerEvents=0;collapsible=0;recursiveResize=0;shape=mxgraph.aws4.group;grIcon=mxgraph.aws4.group_security_group;grStroke=0;strokeColor=#7AA116;fillColor=#F2F6E8;verticalAlign=top;align=left;spacingLeft=30;fontColor=#248814;dashed=0;" vertex="1" parent="8XGC9akkUfp5Vn1tWTnV-1">
          <mxGeometry x="280" y="100" width="125" height="100" as="geometry" />
        </mxCell>
        <mxCell id="8XGC9akkUfp5Vn1tWTnV-18" value="" style="sketch=0;outlineConnect=0;fontColor=#232F3E;gradientColor=none;strokeColor=#232F3E;fillColor=#ffffff;dashed=0;verticalLabelPosition=bottom;verticalAlign=top;align=center;html=1;fontSize=12;fontStyle=0;aspect=fixed;shape=mxgraph.aws4.resourceIcon;resIcon=mxgraph.aws4.nat_gateway;" vertex="1" parent="8XGC9akkUfp5Vn1tWTnV-7">
          <mxGeometry x="62" y="42" width="38" height="38" as="geometry" />
        </mxCell>
        <mxCell id="8XGC9akkUfp5Vn1tWTnV-22" value="&lt;b&gt;NAT Gateaway&lt;/b&gt;" style="text;html=1;strokeColor=none;fillColor=none;align=center;verticalAlign=middle;whiteSpace=wrap;rounded=0;" vertex="1" parent="8XGC9akkUfp5Vn1tWTnV-7">
          <mxGeometry x="31" y="80" width="100" height="20" as="geometry" />
        </mxCell>
        <mxCell id="8XGC9akkUfp5Vn1tWTnV-27" style="edgeStyle=orthogonalEdgeStyle;rounded=0;orthogonalLoop=1;jettySize=auto;html=1;" edge="1" parent="8XGC9akkUfp5Vn1tWTnV-1" source="8XGC9akkUfp5Vn1tWTnV-12" target="8XGC9akkUfp5Vn1tWTnV-10">
          <mxGeometry relative="1" as="geometry">
            <Array as="points">
              <mxPoint x="225" y="325" />
            </Array>
          </mxGeometry>
        </mxCell>
        <mxCell id="8XGC9akkUfp5Vn1tWTnV-28" style="edgeStyle=orthogonalEdgeStyle;rounded=0;orthogonalLoop=1;jettySize=auto;html=1;" edge="1" parent="8XGC9akkUfp5Vn1tWTnV-1" source="8XGC9akkUfp5Vn1tWTnV-12" target="8XGC9akkUfp5Vn1tWTnV-11">
          <mxGeometry relative="1" as="geometry">
            <Array as="points">
              <mxPoint x="225" y="325" />
            </Array>
          </mxGeometry>
        </mxCell>
        <mxCell id="8XGC9akkUfp5Vn1tWTnV-12" value="" style="outlineConnect=0;dashed=0;verticalLabelPosition=bottom;verticalAlign=top;align=center;html=1;shape=mxgraph.aws3.application_load_balancer;fillColor=#F58536;gradientColor=none;" vertex="1" parent="8XGC9akkUfp5Vn1tWTnV-1">
          <mxGeometry x="190" y="120" width="69" height="72" as="geometry" />
        </mxCell>
        <mxCell id="8XGC9akkUfp5Vn1tWTnV-26" style="edgeStyle=orthogonalEdgeStyle;rounded=0;orthogonalLoop=1;jettySize=auto;html=1;" edge="1" parent="8XGC9akkUfp5Vn1tWTnV-1" source="8XGC9akkUfp5Vn1tWTnV-13" target="8XGC9akkUfp5Vn1tWTnV-12">
          <mxGeometry relative="1" as="geometry" />
        </mxCell>
        <mxCell id="8XGC9akkUfp5Vn1tWTnV-31" style="edgeStyle=orthogonalEdgeStyle;rounded=0;orthogonalLoop=1;jettySize=auto;html=1;" edge="1" parent="8XGC9akkUfp5Vn1tWTnV-1" source="8XGC9akkUfp5Vn1tWTnV-13" target="8XGC9akkUfp5Vn1tWTnV-23">
          <mxGeometry relative="1" as="geometry">
            <Array as="points">
              <mxPoint x="225" y="40" />
              <mxPoint x="555" y="40" />
            </Array>
          </mxGeometry>
        </mxCell>
        <mxCell id="8XGC9akkUfp5Vn1tWTnV-32" style="edgeStyle=orthogonalEdgeStyle;rounded=0;orthogonalLoop=1;jettySize=auto;html=1;" edge="1" parent="8XGC9akkUfp5Vn1tWTnV-1" source="8XGC9akkUfp5Vn1tWTnV-13" target="8XGC9akkUfp5Vn1tWTnV-23">
          <mxGeometry relative="1" as="geometry">
            <Array as="points">
              <mxPoint x="555" y="5" />
            </Array>
          </mxGeometry>
        </mxCell>
        <mxCell id="8XGC9akkUfp5Vn1tWTnV-13" value="" style="sketch=0;outlineConnect=0;fontColor=#232F3E;gradientColor=none;fillColor=#8C4FFF;strokeColor=none;dashed=0;verticalLabelPosition=bottom;verticalAlign=top;align=center;html=1;fontSize=12;fontStyle=0;aspect=fixed;pointerEvents=1;shape=mxgraph.aws4.internet_gateway;" vertex="1" parent="8XGC9akkUfp5Vn1tWTnV-1">
          <mxGeometry x="199.5" y="-20" width="50" height="50" as="geometry" />
        </mxCell>
        <mxCell id="8XGC9akkUfp5Vn1tWTnV-17" value="" style="points=[[0,0],[0.25,0],[0.5,0],[0.75,0],[1,0],[1,0.25],[1,0.5],[1,0.75],[1,1],[0.75,1],[0.5,1],[0.25,1],[0,1],[0,0.75],[0,0.5],[0,0.25]];outlineConnect=0;gradientColor=none;html=1;whiteSpace=wrap;fontSize=12;fontStyle=0;container=1;pointerEvents=0;collapsible=0;recursiveResize=0;shape=mxgraph.aws4.groupCenter;grIcon=mxgraph.aws4.group_auto_scaling_group;grStroke=1;strokeColor=#D86613;fillColor=none;verticalAlign=top;align=center;fontColor=#D86613;dashed=1;spacingTop=25;" vertex="1" parent="8XGC9akkUfp5Vn1tWTnV-1">
          <mxGeometry x="20" y="241.25" width="410" height="137.5" as="geometry" />
        </mxCell>
        <mxCell id="8XGC9akkUfp5Vn1tWTnV-19" value="&lt;b&gt;&lt;font color=&quot;#cc6600&quot;&gt;Auto Scaling Group&lt;/font&gt;&lt;/b&gt;" style="text;html=1;strokeColor=none;fillColor=none;align=center;verticalAlign=middle;whiteSpace=wrap;rounded=0;" vertex="1" parent="8XGC9akkUfp5Vn1tWTnV-17">
          <mxGeometry x="140" y="117.5" width="120" height="20" as="geometry" />
        </mxCell>
        <mxCell id="8XGC9akkUfp5Vn1tWTnV-20" value="&lt;b&gt;Application Server&lt;/b&gt;" style="text;html=1;strokeColor=none;fillColor=none;align=center;verticalAlign=middle;whiteSpace=wrap;rounded=0;" vertex="1" parent="8XGC9akkUfp5Vn1tWTnV-17">
          <mxGeometry x="30" y="50" width="110" height="10" as="geometry" />
        </mxCell>
        <mxCell id="8XGC9akkUfp5Vn1tWTnV-21" value="&lt;b&gt;Application Server&lt;/b&gt;" style="text;html=1;strokeColor=none;fillColor=none;align=center;verticalAlign=middle;whiteSpace=wrap;rounded=0;" vertex="1" parent="8XGC9akkUfp5Vn1tWTnV-17">
          <mxGeometry x="270" y="50" width="110" height="10" as="geometry" />
        </mxCell>
        <mxCell id="8XGC9akkUfp5Vn1tWTnV-23" value="" style="sketch=0;outlineConnect=0;fontColor=#232F3E;gradientColor=none;strokeColor=#232F3E;fillColor=#ffffff;dashed=0;verticalLabelPosition=bottom;verticalAlign=top;align=center;html=1;fontSize=12;fontStyle=0;aspect=fixed;shape=mxgraph.aws4.resourceIcon;resIcon=mxgraph.aws4.route_table;" vertex="1" parent="8XGC9akkUfp5Vn1tWTnV-1">
          <mxGeometry x="510" y="100" width="90" height="90" as="geometry" />
        </mxCell>
        <mxCell id="8XGC9akkUfp5Vn1tWTnV-24" value="" style="sketch=0;outlineConnect=0;fontColor=#232F3E;gradientColor=none;strokeColor=#232F3E;fillColor=#ffffff;dashed=0;verticalLabelPosition=bottom;verticalAlign=top;align=center;html=1;fontSize=12;fontStyle=0;aspect=fixed;shape=mxgraph.aws4.resourceIcon;resIcon=mxgraph.aws4.route_table;" vertex="1" parent="8XGC9akkUfp5Vn1tWTnV-1">
          <mxGeometry x="510" y="260" width="90" height="90" as="geometry" />
        </mxCell>
        <mxCell id="8XGC9akkUfp5Vn1tWTnV-25" value="" style="sketch=0;outlineConnect=0;fontColor=#232F3E;gradientColor=none;strokeColor=#232F3E;fillColor=#ffffff;dashed=0;verticalLabelPosition=bottom;verticalAlign=top;align=center;html=1;fontSize=12;fontStyle=0;aspect=fixed;shape=mxgraph.aws4.resourceIcon;resIcon=mxgraph.aws4.route_table;" vertex="1" parent="8XGC9akkUfp5Vn1tWTnV-1">
          <mxGeometry x="510" y="415" width="90" height="90" as="geometry" />
        </mxCell>
        <mxCell id="8XGC9akkUfp5Vn1tWTnV-33" style="edgeStyle=orthogonalEdgeStyle;rounded=0;orthogonalLoop=1;jettySize=auto;html=1;entryX=0.444;entryY=0;entryDx=0;entryDy=0;entryPerimeter=0;" edge="1" parent="8XGC9akkUfp5Vn1tWTnV-1" source="8XGC9akkUfp5Vn1tWTnV-4" target="8XGC9akkUfp5Vn1tWTnV-24">
          <mxGeometry relative="1" as="geometry">
            <Array as="points">
              <mxPoint x="100" y="230" />
              <mxPoint x="550" y="230" />
            </Array>
          </mxGeometry>
        </mxCell>
        <mxCell id="8XGC9akkUfp5Vn1tWTnV-40" style="edgeStyle=orthogonalEdgeStyle;rounded=0;orthogonalLoop=1;jettySize=auto;html=1;" edge="1" parent="8XGC9akkUfp5Vn1tWTnV-1" source="8XGC9akkUfp5Vn1tWTnV-18" target="8XGC9akkUfp5Vn1tWTnV-24">
          <mxGeometry relative="1" as="geometry">
            <Array as="points">
              <mxPoint x="480" y="161" />
              <mxPoint x="480" y="230" />
              <mxPoint x="550" y="230" />
            </Array>
          </mxGeometry>
        </mxCell>
        <mxCell id="8XGC9akkUfp5Vn1tWTnV-42" style="edgeStyle=orthogonalEdgeStyle;rounded=0;orthogonalLoop=1;jettySize=auto;html=1;" edge="1" parent="8XGC9akkUfp5Vn1tWTnV-1" source="8XGC9akkUfp5Vn1tWTnV-18" target="8XGC9akkUfp5Vn1tWTnV-25">
          <mxGeometry relative="1" as="geometry">
            <Array as="points">
              <mxPoint x="480" y="161" />
              <mxPoint x="480" y="470" />
            </Array>
          </mxGeometry>
        </mxCell>
        <mxCell id="8XGC9akkUfp5Vn1tWTnV-44" style="edgeStyle=orthogonalEdgeStyle;rounded=0;orthogonalLoop=1;jettySize=auto;html=1;" edge="1" parent="8XGC9akkUfp5Vn1tWTnV-1" source="8XGC9akkUfp5Vn1tWTnV-8" target="8XGC9akkUfp5Vn1tWTnV-11">
          <mxGeometry relative="1" as="geometry">
            <Array as="points">
              <mxPoint x="220" y="475" />
              <mxPoint x="220" y="390" />
              <mxPoint x="345" y="390" />
            </Array>
          </mxGeometry>
        </mxCell>
        <mxCell id="8XGC9akkUfp5Vn1tWTnV-45" style="edgeStyle=orthogonalEdgeStyle;rounded=0;orthogonalLoop=1;jettySize=auto;html=1;" edge="1" parent="8XGC9akkUfp5Vn1tWTnV-1" source="8XGC9akkUfp5Vn1tWTnV-9" target="8XGC9akkUfp5Vn1tWTnV-10">
          <mxGeometry relative="1" as="geometry">
            <Array as="points">
              <mxPoint x="220" y="475" />
              <mxPoint x="220" y="390" />
              <mxPoint x="100" y="390" />
            </Array>
          </mxGeometry>
        </mxCell>
        <mxCell id="8XGC9akkUfp5Vn1tWTnV-47" value="&lt;b&gt;Route Table&lt;/b&gt;" style="text;html=1;strokeColor=none;fillColor=none;align=center;verticalAlign=middle;whiteSpace=wrap;rounded=0;" vertex="1" parent="8XGC9akkUfp5Vn1tWTnV-1">
          <mxGeometry x="520" y="180" width="70" height="20" as="geometry" />
        </mxCell>
        <mxCell id="8XGC9akkUfp5Vn1tWTnV-48" value="&lt;b&gt;Route Table&lt;/b&gt;" style="text;html=1;strokeColor=none;fillColor=none;align=center;verticalAlign=middle;whiteSpace=wrap;rounded=0;" vertex="1" parent="8XGC9akkUfp5Vn1tWTnV-1">
          <mxGeometry x="520" y="340" width="70" height="20" as="geometry" />
        </mxCell>
        <mxCell id="8XGC9akkUfp5Vn1tWTnV-49" value="&lt;b&gt;Route Table&lt;/b&gt;" style="text;html=1;strokeColor=none;fillColor=none;align=center;verticalAlign=middle;whiteSpace=wrap;rounded=0;" vertex="1" parent="8XGC9akkUfp5Vn1tWTnV-1">
          <mxGeometry x="520" y="490" width="70" height="30" as="geometry" />
        </mxCell>
        <mxCell id="8XGC9akkUfp5Vn1tWTnV-54" value="&lt;b&gt;Internet Gateway&lt;/b&gt;" style="text;html=1;strokeColor=none;fillColor=none;align=center;verticalAlign=middle;whiteSpace=wrap;rounded=0;" vertex="1" parent="8XGC9akkUfp5Vn1tWTnV-1">
          <mxGeometry x="249.5" width="100" height="30" as="geometry" />
        </mxCell>
        <mxCell id="8XGC9akkUfp5Vn1tWTnV-51" style="edgeStyle=orthogonalEdgeStyle;rounded=0;orthogonalLoop=1;jettySize=auto;html=1;" edge="1" parent="1" source="8XGC9akkUfp5Vn1tWTnV-50" target="8XGC9akkUfp5Vn1tWTnV-13">
          <mxGeometry relative="1" as="geometry" />
        </mxCell>
        <mxCell id="8XGC9akkUfp5Vn1tWTnV-50" value="" style="sketch=0;points=[[0,0,0],[0.25,0,0],[0.5,0,0],[0.75,0,0],[1,0,0],[0,1,0],[0.25,1,0],[0.5,1,0],[0.75,1,0],[1,1,0],[0,0.25,0],[0,0.5,0],[0,0.75,0],[1,0.25,0],[1,0.5,0],[1,0.75,0]];outlineConnect=0;fontColor=#232F3E;fillColor=#8C4FFF;strokeColor=#ffffff;dashed=0;verticalLabelPosition=bottom;verticalAlign=top;align=center;html=1;fontSize=12;fontStyle=0;aspect=fixed;shape=mxgraph.aws4.resourceIcon;resIcon=mxgraph.aws4.route_53;" vertex="1" parent="1">
          <mxGeometry x="235.5" y="-520" width="58" height="58" as="geometry" />
        </mxCell>
        <mxCell id="8XGC9akkUfp5Vn1tWTnV-52" value="&lt;b&gt;Route 53&lt;/b&gt;" style="text;html=1;strokeColor=none;fillColor=none;align=center;verticalAlign=middle;whiteSpace=wrap;rounded=0;" vertex="1" parent="1">
          <mxGeometry x="235.5" y="-540" width="60" height="20" as="geometry" />
        </mxCell>
      </root>
    </mxGraphModel>
  </diagram>
</mxfile>
